<?xml version="1.0" standalone="no"?>
<!DOCTYPE svg PUBLIC "-//W3C//DTD SVG 20010904//EN"
 "http://www.w3.org/TR/2001/REC-SVG-20010904/DTD/svg10.dtd">
<svg version="1.0" xmlns="http://www.w3.org/2000/svg"
 width="130.000000pt" height="125.000000pt" viewBox="0 0 130.000000 125.000000"
 preserveAspectRatio="xMidYMid meet">

<g transform="translate(0.000000,125.000000) scale(0.100000,-0.100000)"
fill="#000000" stroke="none">
<path d="M591 1133 c-1 -32 4 -45 18 -53 41 -22 72 20 52 70 -9 23 -10 21 -10
-17 -1 -36 -4 -43 -20 -43 -15 0 -22 10 -29 43 l-10 42 -1 -42z"/>
<path d="M540 1130 c11 -37 4 -38 -32 -3 l-28 27 0 -25 c0 -33 11 -69 20 -69
4 0 5 11 2 25 -5 30 2 31 30 5 27 -25 41 -26 34 -2 -3 9 -8 29 -12 45 -3 15
-10 27 -14 27 -5 0 -5 -13 0 -30z"/>
<path d="M697 1118 c-6 -46 0 -66 10 -30 3 14 13 22 27 23 20 0 20 1 -2 10
-27 10 -19 33 9 26 11 -3 19 -1 19 4 0 5 -13 9 -29 9 -26 0 -29 -4 -34 -42z"/>
<path d="M786 1107 c-28 -37 -34 -56 -12 -38 12 10 19 8 35 -8 l21 -21 0 50
c0 28 -4 50 -9 50 -6 0 -21 -15 -35 -33z m34 -12 c0 -8 -7 -15 -15 -15 -16 0
-20 12 -8 23 11 12 23 8 23 -8z"/>
<path d="M400 1065 c0 -25 5 -45 10 -45 6 0 10 6 10 14 0 17 24 27 48 19 11
-4 7 5 -12 25 -42 45 -56 42 -56 -13z m38 7 c2 -7 -3 -12 -12 -12 -9 0 -16 7
-16 16 0 17 22 14 28 -4z"/>
<path d="M882 1084 c-24 -17 -29 -53 -10 -72 15 -15 45 -16 54 -1 4 7 0 9 -13
5 -24 -8 -48 17 -39 39 9 25 37 30 52 10 14 -19 31 -15 19 4 -14 24 -42 30
-63 15z"/>
<path d="M324 1067 c-2 -7 0 -26 5 -40 12 -31 5 -34 -28 -11 -37 26 -47 3 -15
-35 14 -18 29 -29 32 -26 3 2 -3 14 -13 25 -21 23 -9 26 21 5 27 -18 35 -10
23 22 -14 37 -11 39 16 13 35 -33 31 -15 -5 27 -21 24 -32 30 -36 20z"/>
<path d="M984 1036 c4 -13 -1 -27 -15 -43 -13 -12 -19 -26 -15 -30 4 -5 16 3
27 16 11 13 25 21 34 17 23 -9 18 8 -12 35 -22 20 -25 21 -19 5z"/>
<path d="M509 1011 c-108 -35 -193 -113 -246 -227 -25 -52 -28 -71 -28 -159 1
-130 24 -191 105 -279 202 -216 542 -163 673 103 30 62 32 73 32 171 0 97 -2
110 -31 171 -74 156 -208 240 -378 238 -39 0 -96 -8 -127 -18z m-19 -173 c13
-14 20 -35 20 -60 0 -34 -3 -38 -24 -38 -21 0 -25 6 -28 33 -2 20 -8 32 -18
32 -12 0 -15 -18 -15 -105 0 -87 3 -105 15 -105 10 0 16 12 18 33 2 18 -1 32
-7 32 -6 0 -11 9 -11 20 0 17 7 20 40 20 l41 0 -3 -77 -3 -77 -57 -3 c-48 -3
-60 0 -78 19 -18 19 -20 35 -20 134 0 97 3 115 21 138 27 34 79 36 109 4z
m118 10 c5 -7 13 -38 17 -68 13 -97 21 -100 34 -15 6 44 15 83 20 88 5 5 21 7
37 5 l29 -3 3 -152 c2 -144 2 -152 -18 -158 -32 -10 -40 3 -41 68 -1 69 -3 67
-19 -15 -9 -46 -15 -58 -30 -58 -21 0 -26 11 -37 95 l-8 60 -5 -75 c-4 -67 -7
-75 -25 -75 -19 0 -20 8 -23 145 -1 79 0 150 2 157 7 17 50 17 64 1z m275 1
c32 -17 37 -28 37 -87 0 -68 -12 -90 -55 -98 l-35 -6 0 -60 c0 -59 0 -59 -27
-56 l-28 3 -3 145 c-1 79 0 150 2 157 7 16 79 17 109 2z m-433 -371 c0 -10 2
-10 8 -1 6 9 60 12 212 10 l205 -2 0 -55 0 -55 -72 -3 -73 -2 0 50 c0 38 -4
50 -15 50 -18 0 -20 -26 -2 -34 10 -5 10 -7 0 -12 -7 -3 -13 -17 -13 -30 0
-20 -5 -24 -30 -24 -29 0 -30 1 -30 51 0 31 -4 48 -10 44 -5 -3 -10 -26 -10
-51 0 -24 -4 -44 -10 -44 -5 0 -10 20 -10 44 0 25 -4 48 -10 51 -10 6 -14 -17
-10 -67 1 -20 -3 -28 -14 -28 -10 0 -17 9 -17 23 l-2 22 -4 -23 c-4 -21 -9
-23 -48 -21 -25 2 -47 0 -51 -4 -32 -32 -69 51 -48 107 7 19 54 22 54 4z"/>
<path d="M836 803 c-3 -3 -6 -26 -6 -50 0 -32 4 -43 15 -43 11 0 15 12 15 44
0 43 -10 63 -24 49z"/>
<path d="M421 430 c0 -35 2 -41 10 -27 6 9 14 15 20 12 5 -4 9 3 9 14 0 13 -5
19 -14 15 -8 -3 -16 2 -19 13 -3 10 -5 -2 -6 -27z"/>
<path d="M490 457 c0 -7 5 -18 12 -25 9 -9 9 -12 0 -12 -7 0 -12 -7 -12 -15 0
-8 7 -15 15 -15 11 0 15 11 15 40 0 29 -4 40 -15 40 -8 0 -15 -6 -15 -13z"/>
<path d="M790 456 c0 -8 6 -17 13 -20 10 -5 10 -7 0 -12 -18 -8 -16 -34 2 -34
11 0 15 11 15 40 0 29 -4 40 -15 40 -8 0 -15 -6 -15 -14z"/>
<path d="M844 420 c0 -11 4 -20 8 -20 4 0 8 9 8 20 0 11 -4 20 -8 20 -4 0 -8
-9 -8 -20z"/>
<path d="M1027 949 c-30 -23 -35 -50 -12 -69 17 -14 46 -6 70 20 23 26 10 26
-23 0 -23 -19 -27 -19 -41 -5 -15 15 -13 18 13 41 35 31 29 42 -7 13z"/>
<path d="M197 929 c-9 -6 -21 -18 -27 -29 -8 -15 -4 -22 27 -40 l37 -22 18 22
c13 16 15 27 8 41 -15 27 -42 39 -63 28z m47 -31 c18 -29 -7 -45 -39 -24 -22
14 -24 20 -14 32 15 18 38 15 53 -8z"/>
<path d="M1073 854 c-38 -16 -43 -27 -10 -22 16 2 23 -3 25 -19 2 -13 -1 -23
-7 -23 -6 0 -11 -5 -11 -12 0 -6 7 -4 18 5 10 10 26 17 35 17 23 0 29 15 16
44 -14 29 -21 30 -66 10z m57 -25 c0 -23 -13 -25 -31 -3 -10 13 -10 17 1 24
18 11 30 3 30 -21z"/>
<path d="M135 820 c-26 -29 -7 -70 33 -70 52 0 70 46 30 74 -29 21 -41 20 -63
-4z m60 -30 c0 -30 -26 -38 -48 -15 -23 22 -10 47 22 43 20 -2 26 -8 26 -28z"/>
<path d="M1113 759 c-18 -5 -33 -12 -33 -15 0 -8 74 7 85 17 11 11 -9 10 -52
-2z"/>
<path d="M118 719 c-11 -6 -18 -22 -18 -39 0 -24 5 -31 27 -36 34 -9 57 6 61
40 3 20 -2 28 -23 36 -31 12 -26 12 -47 -1z m60 -36 c4 -28 -34 -42 -55 -20
-23 23 -9 49 24 45 20 -2 29 -9 31 -25z"/>
<path d="M1105 710 c-18 -8 -17 -9 8 -9 15 -1 27 -3 27 -6 0 -3 -12 -17 -27
-30 l-28 -24 35 0 c19 0 44 4 55 9 16 7 14 9 -15 10 l-35 1 28 22 c15 13 27
26 27 30 0 10 -50 8 -75 -3z"/>
<path d="M140 593 c0 -15 2 -16 10 -3 7 12 12 12 22 2 18 -18 -3 -47 -33 -47
-20 0 -24 5 -24 28 1 15 -3 27 -7 27 -15 0 -8 -58 8 -64 46 -18 81 7 70 49 -7
29 -46 36 -46 8z"/>
<path d="M1102 598 c-7 -7 -12 -25 -12 -40 0 -21 5 -28 19 -28 10 0 21 7 24
14 4 10 1 13 -7 10 -20 -8 -30 14 -16 31 30 36 76 2 51 -37 -10 -16 -10 -19 1
-16 18 6 23 59 6 69 -19 12 -52 11 -66 -3z"/>
<path d="M923 270 c-29 -23 -28 -28 3 -63 24 -28 25 -28 50 -12 14 9 23 19 20
22 -3 3 -12 0 -20 -6 -24 -20 -40 -3 -20 20 9 10 12 19 6 19 -6 0 -14 -4 -17
-10 -3 -5 -10 -10 -16 -10 -15 0 -10 22 8 36 10 7 16 15 13 17 -3 3 -15 -3
-27 -13z"/>
<path d="M306 248 c-26 -34 -27 -50 -1 -28 12 10 18 10 30 0 20 -16 45 -6 45
19 0 17 -26 41 -44 41 -2 0 -16 -14 -30 -32z m59 -8 c0 -22 -29 -18 -33 3 -3
14 1 18 15 15 10 -2 18 -10 18 -18z"/>
<path d="M390 190 c-11 -22 -16 -40 -11 -40 5 0 11 5 13 12 7 20 38 0 38 -24
1 -18 5 -15 21 17 l20 40 -22 18 c-30 24 -36 22 -59 -23z m55 10 c3 -5 4 -14
0 -20 -8 -13 -35 -1 -35 16 0 16 26 19 35 4z"/>
<path d="M827 213 c-11 -11 -8 -58 5 -71 17 -17 44 -15 62 4 18 17 21 34 7 34
-5 0 -11 -9 -14 -20 -7 -26 -33 -26 -47 1 -15 27 -7 46 22 52 22 4 22 4 -3 6
-14 0 -29 -2 -32 -6z"/>
<path d="M770 183 c0 -20 22 -73 30 -73 5 0 4 15 -2 33 -12 34 -28 58 -28 40z"/>
<path d="M491 146 c-26 -42 -26 -49 0 -34 17 11 22 10 33 -4 19 -26 22 -23 18
27 -5 55 -22 58 -51 11z m39 -1 c0 -8 -7 -15 -15 -15 -16 0 -20 12 -8 23 11
12 23 8 23 -8z"/>
<path d="M685 170 c-19 -8 -19 -9 3 -9 18 -1 22 -7 22 -30 0 -17 5 -33 11 -37
9 -5 10 3 5 29 -5 28 -3 38 11 46 16 9 15 10 -7 10 -14 0 -34 -4 -45 -9z"/>
<path d="M584 144 c-4 -15 -2 -34 3 -43 14 -22 47 -25 63 -6 15 18 7 19 -20 3
-26 -17 -45 2 -36 36 7 28 33 34 55 14 11 -11 13 -10 9 2 -3 8 -19 16 -36 18
-27 3 -32 -1 -38 -24z"/>
</g>
</svg>
