<svg width="63" height="63" viewBox="0 0 63 63" fill="none" xmlns="http://www.w3.org/2000/svg">
<path d="M40.95 0H22.05C6.3 0 0 6.3 0 22.05V40.95C0 56.7 6.3 63 22.05 63H40.95C56.7 63 63 56.7 63 40.95V22.05C63 6.3 56.7 0 40.95 0ZM46.305 25.425L29.61 42.12C29.3098 42.4226 28.9522 42.6622 28.558 42.8245C28.1639 42.9868 27.7412 43.0685 27.315 43.065C26.8888 43.0685 26.4661 42.9868 26.072 42.8245C25.6778 42.6622 25.3202 42.4226 25.02 42.12L16.65 33.75C16.3504 33.4522 16.1126 33.0982 15.9504 32.7081C15.7881 32.3181 15.7046 31.8999 15.7046 31.4775C15.7046 31.0551 15.7881 30.6369 15.9504 30.2469C16.1126 29.8568 16.3504 29.5028 16.65 29.205C17.91 27.945 19.935 27.945 21.195 29.205L27.27 35.28L41.715 20.835C42.975 19.575 45 19.575 46.26 20.835C47.52 22.095 47.565 24.165 46.305 25.425V25.425Z" fill="#00464A"/>
</svg>
