<svg width="130" height="77" viewBox="0 0 130 77" fill="none" xmlns="http://www.w3.org/2000/svg">
<path opacity="0.794" d="M45.6704 66.7504L45.5623 66.6329L43.2204 66.317C39.95 65.876 38.9979 65.6988 38.835 65.501L38.7498 65.3976L36.8128 65.1379C34.7697 64.864 33.8392 64.6913 33.712 64.5623C33.6918 64.5419 33.5484 64.4947 33.3933 64.4575C33.2382 64.4203 33.0678 64.3652 33.0146 64.3351C32.9614 64.305 32.7647 64.2366 32.5774 64.1832C32.3902 64.1298 32.0691 64.0249 31.8641 63.9501C31.659 63.8753 31.4068 63.8024 31.3035 63.7882C31.2003 63.7738 31.0357 63.732 30.9377 63.695C30.6382 63.5819 30.374 63.496 30.1007 63.4228C29.9572 63.3843 29.7504 63.3215 29.6412 63.283C29.5319 63.2446 29.2806 63.1645 29.0827 63.1051C28.8848 63.0457 28.6583 62.9596 28.5793 62.9137C28.5004 62.8679 28.3629 62.8207 28.2738 62.8088C28.1846 62.797 28.0626 62.7608 28.0025 62.7285C27.9424 62.6961 27.7794 62.6538 27.6403 62.6345C27.4456 62.6073 27.3737 62.5795 27.3277 62.5134C27.2948 62.4662 27.226 62.422 27.1748 62.4152C27.1236 62.4084 27.0365 62.3785 26.9812 62.3488C26.9258 62.3191 26.7603 62.259 26.6132 62.2152C26.4661 62.1714 26.3286 62.1182 26.3077 62.097C26.2867 62.0757 26.2161 62.0385 26.1507 62.0143C26.0278 61.9687 25.6057 61.8177 25.3965 61.7446C25.331 61.7216 25.2425 61.6835 25.1999 61.6599C25.1572 61.6363 25.0425 61.5844 24.9449 61.5446C24.427 61.3337 24.1485 61.2131 23.8922 61.0886C23.7359 61.0128 23.5396 60.9411 23.456 60.9292C23.3675 60.9167 23.2409 60.8568 23.1536 60.7861C23.0709 60.7192 22.961 60.6587 22.9094 60.6518C22.8577 60.6449 22.7668 60.6053 22.7073 60.5641C22.6478 60.5228 22.5028 60.4592 22.385 60.4227C22.2673 60.3861 22.0839 60.3079 21.9773 60.2488C21.7174 60.1045 21.3058 59.9017 21.1485 59.8403C21.0781 59.8129 20.9512 59.7421 20.8665 59.683C20.7818 59.6239 20.6756 59.5706 20.6304 59.5646C20.5853 59.5586 20.4811 59.5076 20.3989 59.4513C20.3167 59.395 20.2044 59.3429 20.1494 59.3356C20.0943 59.3283 19.9661 59.2372 19.8645 59.1332C19.717 58.9823 19.6342 58.9326 19.4536 58.8869C19.3292 58.8553 19.165 58.7868 19.0888 58.7346C19.0126 58.6824 18.9264 58.6365 18.8974 58.6327C18.8684 58.6288 18.7808 58.5801 18.7028 58.5243C18.6249 58.4685 18.5393 58.42 18.5127 58.4165C18.4861 58.413 18.4159 58.3763 18.3566 58.3349C18.1714 58.2059 17.4797 57.8131 17.4091 57.7969C17.3721 57.7884 17.3193 57.7573 17.2917 57.7276C17.2641 57.698 17.0323 57.5326 16.7765 57.3601C16.5207 57.1876 16.3029 57.0277 16.2926 57.0049C16.2822 56.9821 16.2311 56.9577 16.179 56.9508C16.1269 56.9439 16.0663 56.9098 16.0443 56.875C16.0222 56.8403 15.9571 56.7932 15.8996 56.7705C15.842 56.7478 15.7522 56.6898 15.7 56.6416C15.6173 56.5654 15.3024 56.3322 14.9693 56.1004C14.9121 56.0607 14.8569 56.0096 14.8467 55.987C14.8364 55.9643 14.7842 55.94 14.7307 55.9329C14.6772 55.9258 14.6253 55.9021 14.6154 55.8802C14.5915 55.8277 14.1946 55.5315 14.1379 55.524C14.1136 55.5207 14.0153 55.4475 13.9197 55.3613C13.824 55.2751 13.5387 55.0646 13.2856 54.8936C13.0326 54.7226 12.7763 54.5383 12.716 54.4841C12.6557 54.4299 12.5454 54.3521 12.4707 54.3112C12.3961 54.2702 12.1065 54.0691 11.8272 53.8643C11.5479 53.6595 11.2765 53.4689 11.224 53.4408C11.1716 53.4126 11.0405 53.3131 10.9327 53.2196C10.8249 53.1262 10.7179 53.0472 10.6949 53.0441C10.6719 53.0411 10.6318 53.005 10.6058 52.964C10.5798 52.923 10.5064 52.8589 10.4428 52.8216C10.2113 52.6859 9.32276 51.904 9.03323 51.5812C8.9501 51.4885 8.85412 51.3922 8.81994 51.3671C8.69082 51.2725 7.91618 50.3694 7.54716 49.8833C7.36837 49.6478 7.00471 49.0977 6.67829 48.5689C6.63249 48.4947 6.52966 48.3325 6.44979 48.2084C6.13964 47.7264 5.92794 47.3373 5.53864 46.5335C5.48749 46.4279 5.40217 46.2584 5.34905 46.1568C5.29593 46.0553 5.25488 45.9537 5.25783 45.9312C5.26078 45.9087 5.22782 45.833 5.18459 45.7631C5.14136 45.6932 5.06677 45.5287 5.01883 45.3974C4.97089 45.2662 4.91031 45.1005 4.88421 45.0292C4.85812 44.9578 4.80533 44.8374 4.76691 44.7615C4.72849 44.6856 4.65964 44.5091 4.6139 44.3693C4.56817 44.2295 4.51905 44.0856 4.50475 44.0497C4.36365 43.695 3.97779 42.4905 3.94546 42.3038C3.92937 42.2109 3.89732 42.0831 3.87425 42.0197C3.85117 41.9564 3.83652 41.8723 3.84169 41.8329C3.84685 41.7935 3.82699 41.7266 3.79754 41.6843C3.7681 41.642 3.74653 41.5077 3.74961 41.3858C3.7527 41.2639 3.73607 41.1006 3.71267 41.0229C3.60847 40.677 3.48905 40.0869 3.50237 39.9838C3.5104 39.9217 3.49361 39.8227 3.46505 39.764C3.43649 39.7052 3.42546 39.6422 3.44053 39.6238C3.45559 39.6055 3.44608 39.5523 3.41935 39.5057C3.39264 39.4591 3.37932 39.3512 3.38976 39.266C3.40013 39.1807 3.39275 39.069 3.37321 39.0176C3.33771 38.9243 3.26419 38.3062 3.27486 38.1906C3.278 38.157 3.26944 38.0642 3.25592 37.9843C3.24239 37.9045 3.23728 37.746 3.24457 37.632C3.25186 37.5181 3.25097 37.3125 3.24261 37.1752C3.23424 37.0379 3.23885 36.797 3.25284 36.64C3.26683 36.4829 3.28235 36.16 3.28732 35.9223C3.29282 35.6594 3.34315 35.2053 3.41579 34.7631C3.48147 34.3632 3.60522 33.5738 3.69079 33.0087C3.77636 32.4437 3.8621 31.9629 3.88133 31.9403C3.90055 31.9177 3.97498 31.6089 4.04673 31.2541C4.14271 30.7795 4.19864 30.5843 4.25835 30.5154C4.30299 30.4639 4.33213 30.4122 4.32311 30.4005C4.27585 30.3393 4.52704 29.6787 4.70223 29.4034C4.9135 29.0715 5.06745 28.668 5.11179 28.3302C5.13196 28.1765 5.17474 28.0693 5.26037 27.9578C5.32651 27.8718 5.41206 27.7114 5.45048 27.6013C5.4889 27.4913 5.63196 27.1915 5.76838 26.9351C5.96002 26.5749 6.01534 26.4349 6.01168 26.3194C6.00907 26.2371 5.99232 26.1579 5.97444 26.1434C5.91564 26.0956 5.95916 25.9733 6.0587 25.9065C6.11248 25.8704 6.22832 25.7567 6.31612 25.6539C6.40392 25.5511 6.50836 25.4466 6.54822 25.4217C6.58808 25.3968 6.62273 25.361 6.62521 25.342C6.6277 25.323 6.68661 25.217 6.75613 25.1065C6.82564 24.9959 6.9046 24.8266 6.9316 24.7302C6.95859 24.6338 7.0831 24.4101 7.20829 24.2331C7.33349 24.0561 7.43937 23.8849 7.44359 23.8527C7.44781 23.8205 7.58204 23.688 7.74187 23.5583C7.9017 23.4286 8.07872 23.2549 8.13526 23.1722C8.284 22.9548 8.50134 22.7084 8.68037 22.5543C8.76613 22.4805 8.84 22.3919 8.84453 22.3573C8.84905 22.3227 8.97382 22.1554 9.12178 21.9855C9.26973 21.8156 9.39507 21.6438 9.40031 21.6038C9.41059 21.5254 9.55058 21.3574 9.89204 21.0138C10.0112 20.8939 10.1303 20.7733 10.1568 20.7458C10.1832 20.7183 10.2906 20.6208 10.3955 20.529C10.7701 20.2011 10.7934 20.1683 10.8256 19.9221C10.8422 19.7957 10.8807 19.6733 10.9111 19.6501C10.9416 19.6269 11.0433 19.6182 11.1371 19.6306C11.3023 19.6526 11.3276 19.6379 11.9262 19.1739C12.2664 18.9102 12.6893 18.5996 12.866 18.4836C13.0427 18.3676 13.5779 17.9929 14.0554 17.6508C14.533 17.3087 14.9739 17.0144 15.0353 16.9968C15.1509 16.9636 15.3056 16.8748 15.7263 16.6004C15.8619 16.512 16.0287 16.4139 16.0969 16.3826C16.165 16.3513 16.3697 16.2288 16.5516 16.1104C16.7335 15.9921 16.9004 15.8976 16.9223 15.9005C16.9708 15.907 17.4693 15.6144 17.8022 15.3841C18.0107 15.2398 18.0495 15.193 18.0791 15.0494L18.1135 14.8825L18.3887 14.8984C18.5987 14.9106 18.6898 14.8958 18.7735 14.8361C18.8338 14.793 18.8956 14.7594 18.9107 14.7614C18.9259 14.7635 19.0612 14.6932 19.2115 14.6054C19.7459 14.293 19.8615 14.2328 19.9182 14.2377C19.9497 14.2403 20.0717 14.1764 20.1893 14.0955C20.3069 14.0147 20.5873 13.8523 20.8125 13.7347C21.0377 13.617 21.3376 13.4576 21.479 13.3803C21.6204 13.3031 21.7861 13.2147 21.8473 13.184C21.9566 13.129 22.1988 12.9677 22.4344 12.7929C22.5003 12.744 22.6243 12.6684 22.71 12.6249C22.9185 12.5189 23.5507 12.1344 23.7245 12.0079C23.8011 11.9521 23.9363 11.8802 24.025 11.8481C24.1137 11.8159 24.2043 11.7667 24.2263 11.7387C24.268 11.6856 24.572 11.4976 25.031 11.2409C25.1786 11.1584 25.4422 11.0013 25.6168 10.8918C25.7914 10.7823 26.0032 10.6657 26.0875 10.6328C26.2703 10.5614 26.5134 10.4402 26.6544 10.3502C26.7105 10.3144 26.9576 10.1931 27.2034 10.0806C28.1021 9.6694 28.1933 9.61948 28.2726 9.49538C28.3355 9.39675 28.3755 9.37564 28.4755 9.3882C28.6014 9.40399 29.1948 9.2134 29.5401 9.04621C29.8262 8.90769 29.9383 8.86353 30.1497 8.80603C30.2563 8.77702 30.3741 8.73432 30.4114 8.71115C30.4487 8.68797 30.6754 8.59899 30.9152 8.51341C31.1549 8.42783 31.4322 8.32606 31.5313 8.28726C31.6304 8.24847 31.7571 8.2092 31.8128 8.20001C31.8685 8.19081 32.0778 8.11517 32.2778 8.03191C32.4778 7.94865 32.7063 7.87714 32.7854 7.87301C32.8645 7.86889 32.9539 7.84286 32.984 7.81518C33.0141 7.7875 33.0672 7.76864 33.102 7.77326C33.1368 7.77788 33.1975 7.76049 33.237 7.7346C33.2765 7.70871 33.4141 7.66893 33.5427 7.64621C33.6714 7.62348 33.8409 7.56932 33.9193 7.52585C33.9978 7.48237 34.0988 7.4517 34.1439 7.4577C34.189 7.46369 34.2397 7.45185 34.2565 7.43138C34.2733 7.41091 34.3416 7.40141 34.4082 7.41027C34.4749 7.41912 34.7139 7.36032 34.9394 7.27959C35.1649 7.19887 35.4361 7.13145 35.5421 7.12978C35.6481 7.12811 35.8065 7.09112 35.894 7.0476C35.9816 7.00407 36.0828 6.97227 36.119 6.97694C36.1552 6.98161 36.2352 6.96725 36.2968 6.94502C36.3583 6.9228 36.4637 6.89841 36.531 6.89083C36.5982 6.88325 36.7318 6.85337 36.8278 6.82442C36.9238 6.79548 37.1246 6.76581 37.2741 6.75849C37.4237 6.75116 37.5827 6.73191 37.6276 6.71571C37.7787 6.66117 38.1011 6.62235 38.2464 6.6412C38.3257 6.65142 38.43 6.64004 38.4782 6.61577C38.5265 6.5915 38.6821 6.57534 38.8241 6.57986C38.966 6.58438 39.1168 6.57534 39.1591 6.55977C39.2355 6.53167 39.5207 6.52079 40.1428 6.52223C40.3208 6.52265 40.7542 6.56121 41.1058 6.60794C41.7302 6.69089 41.7486 6.6959 41.8866 6.82049C42.1775 7.08305 42.1064 7.46862 41.6553 8.07441C41.3359 8.50344 41.3461 8.48891 41.185 8.744C41.1056 8.86966 40.9702 9.05712 40.884 9.16057C40.7977 9.26402 40.693 9.41445 40.6512 9.49486C40.5792 9.63327 40.5797 9.64586 40.6609 9.73092C40.7573 9.83191 40.8649 9.85743 40.993 9.80969C41.0547 9.7867 41.1181 9.79593 41.2133 9.84173C41.2943 9.88073 41.3742 9.89532 41.4162 9.87877C41.5552 9.82397 42.9855 8.94443 43.1984 8.78284C43.263 8.73377 43.3649 8.67692 43.4247 8.65652C43.4845 8.63611 43.6857 8.52772 43.8718 8.41565C44.3734 8.11352 45.0354 7.74447 45.2614 7.64094C45.3708 7.59081 45.522 7.50743 45.5973 7.45565C45.6727 7.40387 45.932 7.27965 46.1737 7.1796C46.7416 6.94446 46.7679 6.92593 46.7918 6.74295C46.8027 6.65989 46.8405 6.57393 46.8758 6.55191C46.9192 6.52482 47.1169 6.53799 47.4875 6.59265C47.8919 6.65232 48.0841 6.66336 48.2229 6.63495C48.4012 6.59846 48.5362 6.57946 48.949 6.53282C49.0476 6.52168 49.1854 6.50433 49.2553 6.49426C49.3252 6.48419 49.4851 6.47654 49.6107 6.47725C49.7363 6.47796 49.8874 6.46671 49.9464 6.45226C50.0054 6.43781 50.1875 6.42823 50.3511 6.43097C50.5146 6.43372 50.6846 6.42129 50.7287 6.40335C50.7728 6.38542 51.0608 6.37507 51.3686 6.38036C52.495 6.39971 52.6351 6.39705 52.7555 6.35411C52.8376 6.32482 52.9337 6.32629 53.0462 6.35854C53.1387 6.38504 53.2673 6.39432 53.3322 6.37912C53.4295 6.35633 53.4533 6.32693 53.4685 6.21091C53.4948 6.00981 53.5585 6.00616 53.7214 6.19638C53.8 6.28815 53.887 6.36802 53.9147 6.37388C53.9425 6.37975 55.0029 6.5276 56.2713 6.70243C58.7162 7.03946 59.1087 7.11194 60.6936 7.51894C60.9037 7.57288 61.1613 7.6188 61.2661 7.62099C61.3815 7.62338 61.4938 7.65077 61.5508 7.69042C61.6026 7.72642 61.8074 7.79037 62.006 7.83252C62.2045 7.87468 62.5248 7.95789 62.7178 8.01745C62.9108 8.077 63.0894 8.11653 63.1147 8.10528C63.1399 8.09403 63.2336 8.12317 63.3229 8.17002C63.4121 8.21688 63.6649 8.30986 63.8847 8.37664C64.1045 8.44341 64.3557 8.52405 64.443 8.55582C64.5303 8.58759 64.7184 8.65 64.8611 8.69451C65.0039 8.73902 65.2366 8.81835 65.3782 8.87081C65.6987 8.98948 65.9915 9.0851 66.1752 9.1311C66.3574 9.17671 67.3445 9.53485 67.5936 9.6457C67.6993 9.69275 67.8354 9.72849 67.8959 9.72513C67.9678 9.72113 68.0383 9.752 68.0994 9.81428C68.1625 9.87851 68.2879 9.93192 68.4845 9.97824C68.6448 10.016 68.8357 10.0897 68.9088 10.142C68.9819 10.1942 69.1022 10.245 69.1761 10.2548C69.25 10.2647 69.4077 10.3218 69.5266 10.3819C69.6455 10.4419 69.8271 10.5149 69.9302 10.5441C70.0333 10.5733 70.2318 10.6543 70.3712 10.7241C70.5106 10.7939 70.7117 10.8737 70.8182 10.9014C70.9246 10.9292 71.0459 10.9831 71.0877 11.0212C71.1296 11.0593 71.1899 11.0844 71.2218 11.0768C71.2537 11.0693 71.3549 11.1012 71.4467 11.1478C71.5384 11.1944 71.7462 11.2901 71.9084 11.3605C72.0706 11.4309 72.256 11.5138 72.3205 11.5448C72.385 11.5758 72.5879 11.669 72.7713 11.752C72.9547 11.835 73.3361 12.0145 73.619 12.1511C73.9019 12.2876 74.1672 12.4038 74.2086 12.4093C74.25 12.4148 74.4836 12.5356 74.7277 12.6777C74.9719 12.8198 75.3041 12.9958 75.466 13.0686C75.6278 13.1415 75.8579 13.2588 75.9772 13.3292C76.0965 13.3997 76.2265 13.4616 76.2659 13.4668C76.3054 13.4721 76.3905 13.5183 76.455 13.5695C76.5196 13.6207 76.643 13.6947 76.7293 13.7338C76.8156 13.773 76.9564 13.8497 77.0421 13.9042C77.1279 13.9588 77.2267 14.0072 77.2617 14.0118C77.3206 14.0197 77.445 14.0885 77.8625 14.3444C77.9512 14.3988 78.0593 14.448 78.1028 14.4538C78.1462 14.4595 78.201 14.4947 78.2245 14.5319C78.2481 14.5691 78.3248 14.6077 78.395 14.6177C78.4651 14.6278 78.5547 14.6675 78.594 14.7061C78.6334 14.7446 78.7033 14.7813 78.7496 14.7876C78.7958 14.7939 78.884 14.8427 78.9456 14.8959C79.0072 14.9492 79.1053 14.9993 79.1637 15.0072C79.2221 15.0151 79.3436 15.0867 79.4337 15.1664C79.5238 15.2461 79.6142 15.3138 79.6344 15.3169C79.6546 15.32 79.7648 15.3826 79.8792 15.4561C79.9936 15.5296 80.187 15.6371 80.309 15.6949C80.431 15.7528 80.5822 15.8365 80.6449 15.881C80.7076 15.9254 80.7821 15.965 80.8104 15.9689C80.8387 15.9728 80.9351 16.0226 81.0245 16.0795C81.1139 16.1364 81.3186 16.2494 81.4794 16.3306C81.6402 16.4119 81.8594 16.5227 81.9665 16.577C82.0737 16.6312 82.2631 16.7377 82.3874 16.8136C82.5117 16.8895 82.6438 16.9557 82.6809 16.9606C82.7181 16.9655 82.7862 17.004 82.8324 17.0461C82.9545 17.1574 83.5189 17.4434 83.6512 17.461C83.7134 17.4692 83.7796 17.4957 83.7981 17.5197C83.8167 17.5438 83.9811 17.6375 84.1635 17.728C84.3459 17.8186 84.67 17.9854 84.8837 18.0988C85.3954 18.3703 85.5929 18.4426 85.6778 18.3897C85.7649 18.3353 85.8632 18.3928 85.8504 18.4907C85.8404 18.567 86.0534 18.7709 86.1571 18.7843C86.1839 18.7877 86.3307 18.8722 86.4833 18.9721C86.636 19.0719 86.8891 19.2377 87.0458 19.3404C87.3045 19.5101 87.662 19.8869 87.6502 19.9774C87.6476 19.9976 87.7287 20.0251 87.8305 20.0386C88.0802 20.0718 88.0932 20.1525 87.8781 20.3343C87.7642 20.4305 87.7043 20.5158 87.6937 20.5972C87.6771 20.7235 87.3945 21.0749 86.7382 21.7854C86.5451 21.9944 86.3391 22.22 86.2805 22.2867C86.2219 22.3534 86.0617 22.5022 85.9244 22.6175C85.7871 22.7327 85.6109 22.9021 85.5329 22.9939C85.4549 23.0857 85.2889 23.2508 85.164 23.3608C85.0391 23.4708 84.932 23.5979 84.9261 23.6433C84.9136 23.7385 84.7467 23.9351 84.458 24.1946C84.3026 24.3344 84.2432 24.4218 84.2011 24.5732C84.1659 24.7001 84.0966 24.8186 84.0063 24.9063L83.8663 25.0425L83.9766 25.0571C84.1123 25.0751 84.5991 24.8872 84.6818 24.7849C84.715 24.7437 84.9533 24.6376 85.2113 24.549C85.4693 24.4604 85.9071 24.3084 86.1841 24.2113C86.4612 24.1142 86.7643 24.0132 86.8576 23.9868C86.951 23.9605 87.1634 23.8997 87.3297 23.8516C87.496 23.8035 87.6708 23.7536 87.7182 23.7406C87.7656 23.7277 87.9115 23.6845 88.0424 23.6446C88.1733 23.6048 88.3831 23.5567 88.5085 23.5378C88.6339 23.5188 88.7593 23.4891 88.7872 23.4717C88.8426 23.4371 89.2737 23.35 89.4753 23.3325C89.5447 23.3265 89.6337 23.2996 89.6732 23.2727C89.7126 23.2458 89.8297 23.2084 89.9334 23.1897C90.037 23.1709 90.2086 23.1356 90.3146 23.1112C90.4206 23.0868 90.5591 23.067 90.6223 23.0673C90.6854 23.0675 90.7947 23.0472 90.865 23.0221C90.9354 22.997 91.0408 22.9828 91.0992 22.9905C91.1575 22.9983 91.2583 22.9858 91.323 22.9627C91.6132 22.8593 93.2301 23.0073 93.4253 23.1551C93.4773 23.1945 93.6095 23.2392 93.719 23.2546C93.9849 23.2919 94.8237 23.6242 95.2248 23.8511C95.3525 23.9234 95.5028 23.9891 95.5589 23.9972C95.615 24.0053 95.6921 24.0426 95.7303 24.0801C95.7684 24.1175 95.8828 24.1719 95.9845 24.2009C96.0862 24.2299 96.2088 24.2934 96.2569 24.342C96.305 24.3906 96.3741 24.4345 96.4103 24.4396C96.4466 24.4447 96.5479 24.5031 96.6355 24.5694C96.7231 24.6357 96.8351 24.7084 96.8844 24.7308C96.9338 24.7533 97.1499 24.8856 97.3647 25.0249C97.5794 25.1642 97.7791 25.2816 97.8083 25.2859C97.8375 25.2903 97.9369 25.3605 98.029 25.442C98.1212 25.5236 98.2449 25.6068 98.3039 25.627C98.363 25.6472 98.4381 25.7023 98.471 25.7494C98.5038 25.7966 98.5475 25.8374 98.5682 25.8401C98.5888 25.8429 98.7264 25.9482 98.8739 26.0742C99.1576 26.3166 99.6304 26.6416 99.7157 26.653C99.7436 26.6567 99.8037 26.7111 99.8491 26.7739C99.8946 26.8367 99.9568 26.8914 99.9873 26.8954C100.05 26.9038 100.197 27.0185 100.35 27.1791C100.407 27.2387 100.486 27.2919 100.527 27.2973C100.567 27.3026 100.621 27.3396 100.646 27.3793C100.725 27.504 100.864 27.5561 100.971 27.501C101.106 27.4316 101.121 27.4403 101.153 27.6078C101.169 27.6895 101.219 27.782 101.264 27.8133C101.31 27.8447 101.391 27.924 101.446 27.9895C101.533 28.0945 101.773 28.2741 102.335 28.6554C102.425 28.7161 102.506 28.7831 102.516 28.8045C102.525 28.8258 102.568 28.8479 102.61 28.8536C102.653 28.8592 102.768 28.9349 102.866 29.0217C103.063 29.1952 103.361 29.4073 103.42 29.4151C103.44 29.4178 103.544 29.4945 103.65 29.5855C103.891 29.7923 104.586 30.2342 105.095 30.505C105.169 30.5448 105.256 30.6055 105.288 30.64C105.32 30.6745 105.36 30.7047 105.377 30.707C105.41 30.7113 105.641 30.8452 105.756 30.9259C105.792 30.9515 105.857 30.9771 105.899 30.9827C105.942 30.9883 105.996 31.0234 106.019 31.0606C106.043 31.0978 106.08 31.1306 106.102 31.1335C106.124 31.1364 106.205 31.1769 106.282 31.2236C106.36 31.2702 106.458 31.328 106.5 31.3519C106.543 31.3759 106.672 31.4561 106.787 31.5302C106.901 31.6043 107.027 31.6691 107.066 31.6742C107.105 31.6794 107.185 31.7365 107.244 31.8012C107.312 31.8746 107.404 31.9259 107.489 31.9378C107.565 31.9483 107.702 32.0036 107.794 32.0608C107.886 32.1179 107.979 32.1671 108.002 32.1701C108.04 32.1752 108.193 32.2605 108.439 32.4151C108.502 32.4549 108.651 32.5304 108.77 32.5828C108.889 32.6353 109.016 32.6995 109.052 32.7253C109.122 32.7754 109.349 32.8969 109.606 33.0226C109.692 33.0645 109.884 33.1631 110.034 33.2416C110.184 33.32 110.339 33.3886 110.379 33.394C110.42 33.3993 110.52 33.4496 110.602 33.5057C110.758 33.6129 111.232 33.8476 111.45 33.9262C111.521 33.9516 111.587 33.9907 111.597 34.013C111.607 34.0353 111.675 34.0614 111.748 34.0711C111.821 34.0808 111.899 34.1132 111.923 34.1432C111.961 34.1929 112.147 34.2812 112.635 34.481C112.815 34.5548 112.883 34.5878 113.076 34.6964C113.136 34.7299 113.239 34.7645 113.306 34.7733C113.372 34.7822 113.457 34.8096 113.493 34.8342C113.53 34.8588 113.683 34.9341 113.834 35.0014C114.595 35.3402 114.787 35.3969 114.913 35.3187C114.977 35.2787 115.002 35.292 115.103 35.4183C115.187 35.5234 115.258 35.5697 115.36 35.5842C115.437 35.5953 115.543 35.6366 115.595 35.6759C115.647 35.7153 115.754 35.7568 115.832 35.7682C115.911 35.7795 116.019 35.8194 116.072 35.8567C116.126 35.894 116.259 35.949 116.368 35.9788C116.477 36.0087 116.71 36.0804 116.885 36.1382C117.06 36.1959 117.293 36.2723 117.403 36.308C117.513 36.3437 117.673 36.4022 117.76 36.438C117.847 36.4738 118.251 36.6016 118.658 36.7219C119.368 36.9319 119.513 36.982 119.95 37.1698C120.058 37.2163 120.273 37.288 120.427 37.3292C120.71 37.4045 121.012 37.4938 121.481 37.6403L121.734 37.7194L121.938 37.5668C122.174 37.3906 122.256 37.4151 122.294 37.6727C122.306 37.7561 122.332 37.8432 122.352 37.8664C122.402 37.9258 123.399 38.2605 123.608 38.2883C123.704 38.301 123.808 38.3409 123.84 38.3768C123.871 38.4127 124.023 38.4774 124.177 38.5204C124.332 38.5635 124.573 38.6442 124.715 38.6997C124.856 38.7553 125.061 38.8323 125.17 38.8709C125.465 38.9749 125.578 39.0452 125.594 39.1342C125.623 39.2961 125.707 39.3513 125.975 39.387L126.235 39.4215L126.527 39.7877C126.77 40.0914 126.821 40.1831 126.829 40.3252C126.835 40.4539 126.82 40.5095 126.769 40.5489C126.731 40.5778 126.631 40.6639 126.548 40.7403L126.396 40.8791L126.224 41.975C126.05 43.0895 125.979 43.3463 125.807 43.4951C125.771 43.5262 125.737 43.5806 125.733 43.616C125.718 43.7317 125.189 43.9877 125.014 43.9643C124.834 43.9404 124.81 43.996 124.723 44.6619C124.651 45.2138 124.627 45.3148 124.518 45.5135C124.45 45.6375 124.363 45.745 124.323 45.7523C124.283 45.7597 124.233 45.8041 124.211 45.8512C124.157 45.9662 123.749 46.503 123.648 46.5899C123.604 46.6282 123.5 46.749 123.417 46.8584C123.335 46.9679 123.157 47.1794 123.023 47.3284C122.89 47.4775 122.688 47.7101 122.576 47.8454C122.4 48.0579 122.35 48.0934 122.21 48.1057C122.12 48.1135 122.023 48.1233 121.994 48.1274C121.958 48.1324 121.929 48.2265 121.904 48.4201C121.874 48.6486 121.849 48.7189 121.777 48.7737C121.727 48.8113 121.648 48.8983 121.6 48.9669C121.553 49.0356 121.443 49.1521 121.356 49.2258C121.27 49.2995 121.197 49.3756 121.194 49.3951C121.192 49.4145 120.99 49.6363 120.746 49.8881C120.501 50.1399 120.174 50.4785 120.019 50.6406C119.81 50.8593 119.706 50.938 119.616 50.9455C119.48 50.9567 119.4 51.0426 119.379 51.1969C119.37 51.2662 119.26 51.3872 119.034 51.5768C118.461 52.0576 117.778 52.5851 117.31 52.9082C117.063 53.0796 116.719 53.3265 116.546 53.4568C116.374 53.5871 116.218 53.6918 116.199 53.6894C116.181 53.687 116.017 53.7999 115.835 53.9403C115.089 54.5165 114.274 55.0724 113.906 55.2564C113.804 55.3076 113.666 55.4145 113.599 55.4942C113.532 55.5738 113.45 55.6352 113.416 55.6308C113.324 55.6185 113.047 55.7596 112.844 55.9227C112.628 56.0958 112.521 56.092 112.384 55.9064C112.237 55.7077 112.18 55.7177 112.15 55.9475C112.109 56.2531 112.025 56.4034 111.841 56.4946C111.751 56.5393 111.545 56.6745 111.383 56.7949C111.222 56.9153 111.066 57.0107 111.038 57.007C110.978 56.9991 110.842 57.1061 110.761 57.2245C110.73 57.2693 110.628 57.3212 110.534 57.34C110.44 57.3587 110.26 57.4493 110.134 57.5413C109.755 57.8168 109.445 57.9923 109.357 57.9806C109.312 57.9745 109.188 58.0324 109.083 58.1092C108.978 58.186 108.876 58.2468 108.857 58.2442C108.837 58.2417 108.727 58.3013 108.612 58.3768C108.496 58.4522 108.379 58.511 108.351 58.5073C108.323 58.5036 108.218 58.5648 108.118 58.6434C107.946 58.7775 107.731 58.8789 107.643 58.8672C107.622 58.8644 107.402 58.9591 107.155 59.0777C106.907 59.1963 106.599 59.3437 106.469 59.4053C106.339 59.4669 106.199 59.5565 106.158 59.6045C106.116 59.6524 106.05 59.6873 106.01 59.682C105.97 59.6768 105.913 59.6952 105.883 59.723C105.853 59.7509 105.783 59.7787 105.728 59.7849C105.673 59.7911 105.56 59.8615 105.477 59.9413C105.394 60.0212 105.307 60.084 105.284 60.0809C105.261 60.0778 105.172 60.1217 105.086 60.1784C105.001 60.2352 104.885 60.2755 104.829 60.268C104.713 60.2526 104.397 60.4054 104.149 60.5967C104.057 60.6674 103.925 60.7293 103.855 60.7344C103.785 60.7394 103.579 60.8346 103.398 60.9459C103.216 61.0573 103.035 61.144 102.995 61.1387C102.955 61.1334 102.896 61.1522 102.866 61.1805C102.835 61.2088 102.728 61.2481 102.627 61.2678C102.438 61.3052 101.574 61.7174 101.342 61.8809C101.269 61.9324 101.184 61.9713 101.154 61.9672C101.061 61.9549 100.619 62.147 100.563 62.2234C100.535 62.2626 100.492 62.292 100.468 62.2888C100.422 62.2827 99.8683 62.4558 99.1962 62.6867C98.9808 62.7607 98.7275 62.8737 98.6334 62.9377C98.5249 63.0115 98.4202 63.0486 98.3476 63.0389C98.2845 63.0305 98.1171 63.0737 97.9755 63.1347C97.834 63.1958 97.6734 63.2509 97.6188 63.257C97.5641 63.2632 97.5072 63.2831 97.4922 63.3013C97.4507 63.3519 97.2949 63.3163 97.215 63.2379C97.1179 63.1428 97.0794 63.1437 97.0666 63.2416C97.0483 63.3811 96.9041 63.5076 96.6719 63.5879C96.55 63.63 96.3815 63.7098 96.2976 63.7652C96.136 63.8717 95.8123 63.9813 95.5304 64.025C95.3691 64.0499 94.6116 64.2775 94.4706 64.3434C94.4341 64.3605 94.2648 64.4191 94.0943 64.4736C93.9238 64.5282 93.7696 64.5908 93.7516 64.6127C93.7336 64.6347 93.6733 64.6466 93.6178 64.6392C93.5321 64.6279 93.327 64.6867 93.0389 64.8053C93.0026 64.8202 92.8965 64.8454 92.803 64.8612C92.7095 64.877 92.598 64.9131 92.5553 64.9414C92.5125 64.9696 92.3565 65.0183 92.2087 65.0496C92.0608 65.0809 91.8529 65.1424 91.7467 65.1862C91.6405 65.23 91.5299 65.2529 91.5008 65.2372C91.4717 65.2215 91.4001 65.2314 91.3416 65.2594C91.2831 65.2873 91.1434 65.3196 91.0312 65.3311C90.919 65.3427 90.7361 65.3934 90.6246 65.4438C90.5132 65.4941 90.3868 65.5308 90.3439 65.5253C90.3009 65.5195 90.2139 65.5338 90.1507 65.5566C90.0874 65.5795 89.933 65.6162 89.8076 65.6382C89.5724 65.6796 89.3308 65.7389 89.2078 65.7854C89.1692 65.8 88.9286 65.8526 88.6731 65.9023C88.4176 65.9519 88.1236 66.0252 88.0197 66.0651C87.9158 66.105 87.7615 66.1413 87.6767 66.1457C87.592 66.1501 87.4725 66.1794 87.4113 66.2108C87.35 66.2423 87.2189 66.2688 87.1199 66.2698C87.0209 66.2708 86.8245 66.3116 86.6833 66.3604C86.5422 66.4092 86.3724 66.4419 86.3059 66.4331C86.2395 66.4242 86.154 66.4407 86.1159 66.4697C86.0779 66.4987 85.9982 66.516 85.939 66.5081C85.8798 66.5003 85.7408 66.5166 85.63 66.5445C85.1576 66.6635 84.4572 66.8065 84.3905 66.7976C84.3507 66.7924 84.279 66.8101 84.2311 66.8371C84.1832 66.864 84.1084 66.882 84.0649 66.8769C84.0215 66.8718 83.8503 66.8938 83.6846 66.9257C83.5189 66.9576 83.1457 67.0127 82.8554 67.048C82.5651 67.0834 82.297 67.1314 82.2597 67.1547C82.2224 67.1781 82.1354 67.1995 82.0665 67.2024C81.9975 67.2053 81.8364 67.2224 81.7083 67.2404C81.5802 67.2583 81.1807 67.3105 80.8205 67.3563C80.4603 67.4021 80.051 67.4576 79.9109 67.4796C79.521 67.541 79.3492 67.5601 78.9622 67.5852C78.7662 67.5979 78.3978 67.6271 78.1434 67.6502C77.8889 67.6733 77.6053 67.6972 77.5131 67.7033C77.4209 67.7094 77.2697 67.7217 77.1771 67.7306C77.0845 67.7395 76.8577 67.7581 76.6731 67.7719C76.4884 67.7858 76.2509 67.8147 76.1452 67.8363C75.9338 67.8794 75.7626 67.8922 75.201 67.9071C74.9946 67.9126 74.7315 67.9228 74.6163 67.9299C73.9233 67.9723 73.7078 67.9827 73.4557 67.9862C73.3011 67.9882 72.9973 68.0042 72.7806 68.0215C72.4043 68.0516 71.9389 68.0734 71.3962 68.0863C71.2586 68.0896 70.8761 68.0835 70.5461 68.0728C70.2161 68.0622 69.7969 68.051 69.6144 68.0482C69.4319 68.0453 68.6913 67.9671 67.9685 67.8744L66.6543 67.7059L66.5286 67.5633L66.4029 67.4207L65.0401 67.2397C63.6404 67.0537 63.2102 66.9609 62.8277 66.7635C62.734 66.7152 62.599 66.6678 62.5277 66.6584C62.4564 66.6489 62.3828 66.6223 62.3641 66.5992C62.3136 66.5369 61.618 66.2073 61.5054 66.1924C61.4518 66.1853 61.3994 66.1604 61.3888 66.1371C61.3783 66.1138 61.2601 66.0436 61.1263 65.9811C60.9925 65.9186 60.7607 65.8022 60.6111 65.7225C60.4616 65.6427 60.2825 65.552 60.2131 65.5209C60.1438 65.4898 60.0793 65.4473 60.0698 65.4264C60.0604 65.4056 59.9635 65.3544 59.8545 65.3127C59.7456 65.2709 59.6484 65.219 59.6385 65.1973C59.6287 65.1755 59.5763 65.1519 59.5221 65.1447C59.4679 65.1375 59.3521 65.0664 59.2648 64.9867C59.1145 64.8496 58.7106 64.679 58.5918 64.7024C58.5639 64.7079 58.4526 64.6107 58.3443 64.4864C58.2125 64.3351 58.1111 64.2556 58.0375 64.2458C57.9663 64.2363 57.8656 64.1609 57.7518 64.0318C57.5294 63.7795 57.334 63.6571 57.1053 63.6267C56.926 63.6028 56.6654 63.4439 56.6119 63.3257C56.5713 63.2361 56.3732 63.1147 56.297 63.1327C56.2568 63.1422 56.1945 63.1098 56.1486 63.0555C56.1051 63.0041 56.0253 62.9427 55.9712 62.9192C55.9172 62.8956 55.8498 62.8389 55.8215 62.7933C55.7932 62.7476 55.6848 62.6753 55.5806 62.6327C55.3484 62.5377 55.3126 62.5661 55.2706 62.8795C55.2488 63.0428 55.2617 63.1338 55.3244 63.2574C55.3698 63.3469 55.4006 63.4687 55.3928 63.528C55.3844 63.592 55.4402 63.7465 55.53 63.9082C55.6324 64.0926 55.676 64.2212 55.6649 64.3061C55.6521 64.4035 55.6967 64.4997 55.8637 64.7348C56.1266 65.1051 56.2034 65.2675 56.1845 65.4132C56.1725 65.505 56.1881 65.5272 56.2717 65.5383C56.3445 65.548 56.4405 65.6433 56.6097 65.8739C56.7398 66.0511 56.911 66.2444 56.9902 66.3035C57.0695 66.3626 57.1322 66.4277 57.1295 66.448C57.1268 66.4684 57.225 66.622 57.3476 66.7893C57.6661 67.224 57.7158 67.3652 57.6708 67.7082C57.6348 67.983 57.6301 67.9921 57.4905 68.0537C57.1964 68.1834 56.8816 68.2235 56.3004 68.2053C55.8294 68.1905 54.7635 68.0604 50.7479 67.5276L45.7784 66.8681L45.6704 66.7504Z" fill="white"/>
<path d="M56.539 20.8462C55.5009 22.0975 55.1644 23.2351 55.4123 25.1689L55.7032 27.6716L57.2632 24.8277L58.8231 21.9838L57.72 25.0552C56.4315 28.5816 56.4615 31.8805 57.7621 30.9705C58.2604 30.6292 58.219 31.198 57.7638 32.108C56.2883 34.9519 60.0495 34.3832 61.8631 31.5393C63.0523 29.6054 63.119 28.9229 62.45 28.1266C61.1462 26.7615 59.9375 26.8753 58.4011 28.4679C57.4135 29.4917 57.1598 29.4917 57.3867 28.4679C57.5631 27.6716 58.1118 27.1028 58.5344 27.1028C59.0417 27.1028 59.6066 26.079 59.8587 24.9414C61.0683 19.4811 59.4085 17.4335 56.539 20.8462Z" fill="#00464A"/>
<path d="M47.1576 23.5764C45.8487 24.1451 45.5537 24.7139 46.1038 25.2827C46.5945 25.7377 46.7399 26.989 46.488 28.1266C45.8835 30.8567 47.8229 33.9281 50.1044 33.9281C52.386 33.9281 52.5623 33.1319 51.3834 30.0604C50.3914 27.6716 50.3914 27.6716 51.797 29.7192C52.5932 31.0842 53.3627 31.4255 53.877 30.6292C55.125 28.8091 54.1477 24.8277 52.0335 23.6901C49.8601 22.4388 49.6066 22.4388 47.1576 23.5764Z" fill="#00464A"/>
<path d="M29.6652 33.1319C29.2098 34.0419 28.142 38.4784 27.2775 43.1424L25.6657 51.5603H29.8941C33.5306 51.5603 34.1982 51.2191 34.6267 49.2852C34.9797 47.6926 34.4796 46.8963 32.9232 46.6688C29.9796 46.2138 30.5163 43.0286 33.4762 43.0286C34.9985 43.0286 35.7165 42.4598 36.0947 40.7535C36.4728 39.0472 36.0069 38.4784 34.4846 38.4784C33.3007 38.4784 32.4965 37.9096 32.6225 37.3408C32.7738 36.6583 34.0586 36.2033 35.4117 36.2033C37.3568 36.2033 38.0496 35.7482 38.453 33.9281C38.8815 31.9943 38.3652 31.653 34.7287 31.653C31.938 31.653 30.2051 32.2218 29.6652 33.1319Z" fill="#00464A"/>
<path d="M38.6185 36.8858C38.5429 37.2271 38.8159 39.0472 39.1734 40.8673C39.8454 43.9387 39.7447 44.3937 37.7122 47.4651C34.8954 51.7878 34.8199 52.1291 37.1863 52.1291C38.454 52.1291 39.7543 51.219 40.6141 49.6265L42.0387 47.0101L42.4734 49.6265C42.7123 51.219 43.694 52.1291 45.0462 52.1291H47.0746L46.4262 47.8064C45.8209 44.0524 45.9972 43.2561 47.4397 41.3223C48.3678 40.1847 49.2528 38.4784 49.4292 37.6821C49.9582 35.2932 46.5955 35.9757 44.9173 38.5921L43.4585 40.981L42.8044 38.5921C42.0999 36.4308 38.9964 35.1795 38.6185 36.8858Z" fill="#00464A"/>
<path d="M50.5107 44.1662C48.9205 51.3328 48.9131 52.1291 50.4373 52.1291C51.9614 52.1291 52.3075 51.3328 53.8977 44.1662C55.488 36.9995 55.4953 36.2033 53.9712 36.2033C52.447 36.2033 52.101 36.9995 50.5107 44.1662Z" fill="#00464A"/>
<path d="M55.779 47.0101C53.5608 57.0206 53.469 57.8169 55.0755 57.8169C56.4284 57.8169 56.9431 57.0206 57.5228 54.4042C58.2286 51.219 58.4481 50.9915 60.2417 51.6741C65.0215 53.3804 70.2983 41.7773 66.6397 37.6821C65.1917 36.2033 64.4559 36.0895 62.9607 37.1133C61.7444 38.0234 61.1525 38.0234 61.3038 37.3408C61.4298 36.772 60.7948 36.2033 59.8647 36.2033C58.2582 36.2033 57.9972 36.9996 55.779 47.0101ZM62.6012 45.9863C60.5157 48.1476 59.1108 47.2376 59.7914 44.1662C60.3963 41.436 62.3485 40.6397 63.5265 42.5736C64.2387 43.9387 64.1379 44.3937 62.6012 45.9863Z" fill="#00464A"/>
<path d="M71.2763 36.8858C69.85 38.3646 68.4422 47.0101 69.1557 49.5127C69.6823 51.3328 70.7397 51.9016 74.1205 51.9016H78.431L79.8656 44.2799C81.0734 37.6821 81.1059 36.772 79.5846 36.772C78.2322 36.772 77.6081 37.6821 76.3377 41.8911C74.3692 48.4889 72.8479 48.4889 73.8021 41.8911C74.4629 36.9995 73.3357 34.8382 71.2763 36.8858Z" fill="#00464A"/>
<path d="M83.8264 36.9995C83.4718 37.4546 82.4365 40.981 81.5541 44.9625C80.0161 51.9016 80.0503 52.1291 82.0801 52.1291C83.9408 52.1291 84.2953 51.6741 85.1778 47.6926C85.7325 45.19 86.7946 42.6873 87.7323 41.8911C90.5957 39.2747 90.3892 36.772 87.3103 36.5445C85.7286 36.4308 84.1558 36.6583 83.8264 36.9995Z" fill="#00464A"/>
<path d="M92.5711 39.0472C91.0603 40.526 89.6266 42.8011 89.3243 44.1662C88.1652 49.3989 93.0991 53.8354 97.0001 51.1053C99.1026 49.6265 98.1193 47.5789 95.2456 47.5789C93.8932 47.5789 92.9204 47.0101 93.0464 46.4413C93.1976 45.7588 94.8197 45.3037 96.6792 45.3037C99.4684 45.3037 100.136 44.9625 100.564 43.0286C101.219 40.071 99.202 36.2033 97.0045 36.2033C95.9902 36.2033 94.0226 37.4546 92.5711 39.0472ZM96.5647 42.0048C96.4387 42.5736 95.7463 43.0286 95.0701 43.0286C93.8023 43.0286 93.682 41.6635 94.8889 40.4122C95.7667 39.5022 96.8922 40.526 96.5647 42.0048Z" fill="#00464A"/>
</svg>
