<svg width="540" height="100" viewBox="0 0 540 100" fill="none" xmlns="http://www.w3.org/2000/svg">
<g clip-path="url(#clip0_42_22254)">
<path d="M22.575 96.5188C20.1625 97.7563 17.425 95.5875 17.9125 92.8188L23.1 63.2563L1.08126 42.2813C-0.974993 40.3188 0.0937568 36.7313 2.85001 36.3438L33.4625 31.9938L47.1125 4.95001C48.3438 2.51251 51.675 2.51251 52.9063 4.95001L66.5563 31.9938L97.1688 36.3438C99.925 36.7313 100.994 40.3188 98.9313 42.2813L76.9188 63.2563L82.1063 92.8188C82.5938 95.5875 79.8563 97.7563 77.4438 96.5188L50 82.4188L22.5688 96.5188H22.575Z" fill="#f9e906"/>
</g>
<g clip-path="url(#clip1_42_22254)">
<path d="M132.575 96.5188C130.163 97.7563 127.425 95.5875 127.913 92.8188L133.1 63.2563L111.081 42.2813C109.025 40.3188 110.094 36.7313 112.85 36.3438L143.463 31.9938L157.113 4.95001C158.344 2.51251 161.675 2.51251 162.906 4.95001L176.556 31.9938L207.169 36.3438C209.925 36.7313 210.994 40.3188 208.931 42.2813L186.919 63.2563L192.106 92.8188C192.594 95.5875 189.856 97.7563 187.444 96.5188L160 82.4188L132.569 96.5188H132.575Z" fill="#f9e906"/>
</g>
<g clip-path="url(#clip2_42_22254)">
<path d="M242.575 96.5188C240.163 97.7563 237.425 95.5875 237.913 92.8188L243.1 63.2563L221.081 42.2813C219.025 40.3188 220.094 36.7313 222.85 36.3438L253.463 31.9938L267.113 4.95001C268.344 2.51251 271.675 2.51251 272.906 4.95001L286.556 31.9938L317.169 36.3438C319.925 36.7313 320.994 40.3188 318.931 42.2813L296.919 63.2563L302.106 92.8188C302.594 95.5875 299.856 97.7563 297.444 96.5188L270 82.4188L242.569 96.5188H242.575Z" fill="#f9e906"/>
</g>
<g clip-path="url(#clip3_42_22254)">
<path d="M352.575 96.5188C350.163 97.7563 347.425 95.5875 347.913 92.8188L353.1 63.2563L331.081 42.2813C329.025 40.3188 330.094 36.7313 332.85 36.3438L363.463 31.9938L377.113 4.95001C378.344 2.51251 381.675 2.51251 382.906 4.95001L396.556 31.9938L427.169 36.3438C429.925 36.7313 430.994 40.3188 428.931 42.2813L406.919 63.2563L412.106 92.8188C412.594 95.5875 409.856 97.7563 407.444 96.5188L380 82.4188L352.569 96.5188H352.575Z" fill="#f9e906"/>
</g>
<g clip-path="url(#clip4_42_22254)">
<path d="M462.575 96.5188C460.163 97.7563 457.425 95.5875 457.913 92.8188L463.1 63.2563L441.081 42.2813C439.025 40.3188 440.094 36.7313 442.85 36.3438L473.463 31.9938L487.113 4.95001C488.344 2.51251 491.675 2.51251 492.906 4.95001L506.556 31.9938L537.169 36.3438C539.925 36.7313 540.994 40.3188 538.931 42.2813L516.919 63.2563L522.106 92.8188C522.594 95.5875 519.856 97.7563 517.444 96.5188L490 82.4188L462.569 96.5188H462.575Z" fill="#f9e906"/>
</g>
<defs>
<clipPath id="clip0_42_22254">
<rect width="100" height="100" fill="white"/>
</clipPath>
<clipPath id="clip1_42_22254">
<rect width="100" height="100" fill="white" transform="translate(110)"/>
</clipPath>
<clipPath id="clip2_42_22254">
<rect width="100" height="100" fill="white" transform="translate(220)"/>
</clipPath>
<clipPath id="clip3_42_22254">
<rect width="100" height="100" fill="white" transform="translate(330)"/>
</clipPath>
<clipPath id="clip4_42_22254">
<rect width="100" height="100" fill="white" transform="translate(440)"/>
</clipPath>
</defs>
</svg>
